<svg width="159" height="62" viewBox="0 0 159 62" fill="none" xmlns="http://www.w3.org/2000/svg">
<path d="M11.8613 49.6113H2.75V33.6348L2.97559 33.6123L11.5859 32.751L11.8613 32.7236V49.6113Z" fill="#006426" stroke="black" stroke-width="0.5"/>
<path d="M24.1113 49.167H14.5V31.1055L14.8145 30.9805L23.4258 27.5361L24.1113 27.2617V49.167Z" fill="#659F0E" stroke="#55A00F"/>
<path d="M37.1113 48.9502H27.5V25.5312L27.6904 25.3809L36.3018 18.6074L37.1113 17.9707V48.9502Z" fill="#DEBF00" stroke="#D3A600"/>
<path d="M39.3656 4.64037C40.2522 4.34495 41.1376 5.09115 40.9965 6.01486L39.5176 15.6724C39.3687 16.6447 38.2071 17.0718 37.4637 16.4279L29.8254 9.80792C29.0937 9.17357 29.3298 7.98431 30.2485 7.67798L39.3656 4.64037Z" fill="#005486" stroke="black" stroke-width="0.5"/>
<path d="M31.1778 11.6727C31.5628 11.3535 32.1281 11.3508 32.5171 11.6801L35.57 14.2653C36.1445 14.7518 36.1617 15.6322 35.6069 16.1409L32.3108 19.163L32.3037 19.1705L32.2945 19.1772L30.0558 20.8989L30.0485 20.9045L27.6372 22.6263L27.6299 22.6319L27.6206 22.6377L24.176 24.7044L24.1686 24.7091L24.1592 24.7138L20.7153 26.4354L20.7079 26.44L20.6993 26.4427L18.6327 27.3042L18.6261 27.3068L16.3878 28.1674L16.3859 28.1686L15.0075 28.6855L14.9808 28.6938L12.9139 29.2102L10.1587 29.8986L10.1519 29.9002L8.60182 30.2455L8.59696 30.246L6.87515 30.5904L6.85976 30.5938L6.84518 30.5951L4.60643 30.7673L4.5868 30.7672L2.24985 30.767C1.69083 30.7669 1.23732 30.3138 1.23703 29.7548C1.23684 29.2783 1.56894 28.8659 2.0346 28.7646L5.38818 28.035L9.50939 26.8328L12.2481 25.8046L14.1186 24.9542L14.8088 24.6094L14.8154 24.6068L14.8219 24.6033L16.0135 24.0918L17.2062 23.4106L18.4018 22.7281L20.2965 21.5224L20.2984 21.5213L21.6691 20.6638L22.3461 20.1545L22.3469 20.1534L23.0296 19.6416L23.8911 18.9525L23.8975 18.948L24.5289 18.4762C24.5577 18.4546 24.5853 18.4313 24.6107 18.4059L25.9373 17.0788L27.6591 15.3566L28.8645 14.1514L28.8655 14.1514L29.7268 13.2897L30.174 12.8407C30.2077 12.8067 30.2381 12.7691 30.2647 12.7294L30.5019 12.3751C30.5471 12.3077 30.5989 12.2448 30.6563 12.1874L31.1036 11.7403L31.1778 11.6727Z" fill="#005486" stroke="black" stroke-width="0.5"/>
<path d="M47.4375 16.1945V13.4821H59.1168V16.1945H54.9268V27.3003H51.6342V16.1945H47.4375ZM62.078 27.3003V13.4821H67.7861C68.8206 13.4821 69.7135 13.6688 70.4647 14.0421C71.2204 14.411 71.8029 14.9417 72.2122 15.6345C72.6215 16.3227 72.8262 17.1391 72.8262 18.0837C72.8262 19.0418 72.617 19.8559 72.1987 20.5261C71.7804 21.1919 71.1866 21.7002 70.4174 22.051C69.6483 22.3974 68.7374 22.5705 67.6848 22.5705H64.0751V19.9391H67.0641C67.5679 19.9391 67.9885 19.8739 68.3258 19.7435C68.6677 19.6085 68.9263 19.4061 69.1018 19.1362C69.2772 18.8618 69.3649 18.511 69.3649 18.0837C69.3649 17.6564 69.2772 17.3033 69.1018 17.0244C68.9263 16.741 68.6677 16.5296 68.3258 16.3901C67.984 16.2462 67.5634 16.1742 67.0641 16.1742H65.4178V27.3003H62.078ZM69.8574 20.985L73.2985 27.3003H69.655L66.2814 20.985H69.8574ZM78.977 27.3003H75.3875L80.0498 13.4821H84.4962L89.1585 27.3003H85.569L82.3236 16.9636H82.2157L78.977 27.3003ZM78.498 21.8621H86.0008V24.399H78.498V21.8621ZM97.0838 27.3003H91.9762V13.4821H97.0771C98.485 13.4821 99.6972 13.7587 100.714 14.312C101.735 14.8608 102.522 15.6524 103.075 16.687C103.629 17.7171 103.905 18.9496 103.905 20.3845C103.905 21.8238 103.629 23.0608 103.075 24.0954C102.527 25.13 101.742 25.9239 100.721 26.4771C99.6995 27.0259 98.4872 27.3003 97.0838 27.3003ZM95.3161 24.453H96.9556C97.7293 24.453 98.3838 24.3225 98.9191 24.0617C99.4588 23.7963 99.8659 23.3667 100.14 22.7729C100.419 22.1747 100.559 21.3785 100.559 20.3845C100.559 19.3904 100.419 18.5987 100.14 18.0095C99.8614 17.4157 99.4498 16.9884 98.9056 16.7275C98.3658 16.4621 97.7001 16.3294 96.9084 16.3294H95.3161V24.453ZM107.185 27.3003V13.4821H116.82V16.1945H110.525V19.0283H116.328V21.7474H110.525V24.5879H116.82V27.3003H107.185Z" fill="#006232"/>
<path d="M48.2353 47.6221V33.8039H53.9434C54.9779 33.8039 55.8708 34.0063 56.622 34.4111C57.3777 34.8115 57.9602 35.3715 58.3695 36.0912C58.7788 36.8064 58.9835 37.6385 58.9835 38.5876C58.9835 39.5412 58.7743 40.3756 58.356 41.0908C57.9422 41.8015 57.3507 42.3525 56.5815 42.7439C55.8123 43.1352 54.8992 43.3309 53.8422 43.3309H50.3201V40.6995H53.2214C53.7252 40.6995 54.1458 40.6118 54.4831 40.4363C54.825 40.2609 55.0836 40.0158 55.2591 39.7009C55.4345 39.3815 55.5222 39.0104 55.5222 38.5876C55.5222 38.1603 55.4345 37.7915 55.2591 37.4811C55.0836 37.1662 54.825 36.9233 54.4831 36.7524C54.1413 36.5815 53.7207 36.496 53.2214 36.496H51.5751V47.6221H48.2353ZM61.9598 47.6221V33.8039H65.2996V44.9097H71.0482V47.6221H61.9598ZM82.4669 33.8039H85.8V42.7169C85.8 43.747 85.5549 44.6443 85.0646 45.409C84.5743 46.1692 83.8906 46.7584 83.0134 47.1768C82.1363 47.5906 81.1175 47.7975 79.957 47.7975C78.783 47.7975 77.7574 47.5906 76.8803 47.1768C76.0031 46.7584 75.3217 46.1692 74.8359 45.409C74.3501 44.6443 74.1072 43.747 74.1072 42.7169V33.8039H77.447V42.4268C77.447 42.9036 77.5505 43.3286 77.7574 43.702C77.9688 44.0753 78.2634 44.3677 78.6413 44.5791C79.0191 44.7905 79.4577 44.8962 79.957 44.8962C80.4563 44.8962 80.8926 44.7905 81.2659 44.5791C81.6438 44.3677 81.9384 44.0753 82.1498 43.702C82.3612 43.3286 82.4669 42.9036 82.4669 42.4268V33.8039ZM96.6924 37.9466C96.6474 37.4519 96.4473 37.0673 96.0919 36.7929C95.7411 36.514 95.2395 36.3746 94.5873 36.3746C94.1555 36.3746 93.7956 36.4308 93.5078 36.5432C93.2199 36.6557 93.004 36.8109 92.86 37.0088C92.7161 37.2022 92.6419 37.4249 92.6374 37.6768C92.6284 37.8837 92.6689 38.0658 92.7588 38.2233C92.8533 38.3807 92.9882 38.5202 93.1637 38.6416C93.3436 38.7586 93.5595 38.862 93.8114 38.952C94.0633 39.0419 94.3467 39.1206 94.6615 39.1881L95.849 39.458C96.5327 39.6064 97.1355 39.8044 97.6573 40.0518C98.1835 40.2992 98.6244 40.5938 98.9797 40.9356C99.3396 41.2775 99.6117 41.6711 99.7961 42.1164C99.9805 42.5617 100.075 43.061 100.079 43.6143C100.075 44.4869 99.8546 45.2358 99.4183 45.8611C98.982 46.4863 98.3545 46.9653 97.5358 47.2982C96.7217 47.6311 95.7388 47.7975 94.5873 47.7975C93.4313 47.7975 92.4237 47.6243 91.5646 47.278C90.7054 46.9316 90.0375 46.4053 89.5607 45.6991C89.0839 44.9929 88.8387 44.1001 88.8252 43.0205H92.0234C92.0504 43.4658 92.1696 43.8369 92.381 44.1338C92.5924 44.4307 92.8825 44.6556 93.2514 44.8085C93.6247 44.9614 94.0565 45.0379 94.5468 45.0379C94.9966 45.0379 95.379 44.9772 95.6938 44.8557C96.0132 44.7343 96.2583 44.5656 96.4293 44.3497C96.6002 44.1338 96.6879 43.8864 96.6924 43.6075C96.6879 43.3466 96.607 43.124 96.4495 42.9395C96.2921 42.7506 96.0492 42.5887 95.7208 42.4537C95.397 42.3143 94.9831 42.1861 94.4793 42.0692L93.0355 41.7318C91.839 41.4574 90.8966 41.0144 90.2084 40.4026C89.5202 39.7864 89.1783 38.9542 89.1828 37.9062C89.1783 37.0515 89.4077 36.3026 89.871 35.6594C90.3343 35.0161 90.9753 34.5146 91.794 34.1547C92.6126 33.7949 93.546 33.615 94.5941 33.615C95.6646 33.615 96.5935 33.7971 97.3806 34.1615C98.1723 34.5213 98.7863 35.0274 99.2226 35.6796C99.6589 36.3318 99.8816 37.0875 99.8906 37.9466H96.6924Z" fill="#00477E"/>
</svg>
